<svg width="20" height="20" viewBox="0 0 20 20" fill="none" xmlns="http://www.w3.org/2000/svg">
<path fill-rule="evenodd" clip-rule="evenodd" d="M13 0C11.8954 0 11 0.89543 11 2V7C11 8.10457 11.8954 9 13 9H18C19.1046 9 20 8.10457 20 7V2C20 0.895431 19.1046 0 18 0H13ZM13 1C12.4477 1 12 1.44772 12 2V7C12 7.55228 12.4477 8 13 8H18C18.5523 8 19 7.55228 19 7V2C19 1.44772 18.5523 1 18 1H13Z" fill="#FF9900"/>
<path fill-rule="evenodd" clip-rule="evenodd" d="M2 0C0.895431 0 0 0.89543 0 2V7C0 8.10457 0.89543 9 2 9H7C8.10457 9 9 8.10457 9 7V2C9 0.895431 8.10457 0 7 0H2ZM2 1C1.44772 1 1 1.44772 1 2V7C1 7.55228 1.44772 8 2 8H7C7.55228 8 8 7.55228 8 7V2C8 1.44772 7.55228 1 7 1H2Z" fill="#FF9900"/>
<path fill-rule="evenodd" clip-rule="evenodd" d="M2 11C0.895431 11 0 11.8954 0 13V18C0 19.1046 0.89543 20 2 20H7C8.10457 20 9 19.1046 9 18V13C9 11.8954 8.10457 11 7 11H2ZM2 12C1.44772 12 1 12.4477 1 13V18C1 18.5523 1.44772 19 2 19H7C7.55228 19 8 18.5523 8 18V13C8 12.4477 7.55228 12 7 12H2Z" fill="#FF9900"/>
<path fill-rule="evenodd" clip-rule="evenodd" d="M13 11C11.8954 11 11 11.8954 11 13V18C11 19.1046 11.8954 20 13 20H18C19.1046 20 20 19.1046 20 18V13C20 11.8954 19.1046 11 18 11H13ZM13 12C12.4477 12 12 12.4477 12 13V18C12 18.5523 12.4477 19 13 19H18C18.5523 19 19 18.5523 19 18V13C19 12.4477 18.5523 12 18 12H13Z" fill="#FF9900"/>
</svg>
