<svg width="20" height="20" viewBox="0 0 20 20" fill="none" xmlns="http://www.w3.org/2000/svg">
<path fill-rule="evenodd" clip-rule="evenodd" d="M10 17.5C14.1421 17.5 17.5 14.1421 17.5 10C17.5 5.85786 14.1421 2.5 10 2.5C5.85786 2.5 2.5 5.85786 2.5 10C2.5 14.1421 5.85786 17.5 10 17.5ZM10 15C12.7614 15 15 12.7614 15 10C15 7.23858 12.7614 5 10 5C7.23858 5 5 7.23858 5 10C5 12.7614 7.23858 15 10 15Z" fill="white"/>
<rect x="8.33331" width="3.33333" height="3.33333" rx="1" fill="white"/>
<rect x="8.33331" y="16.6667" width="3.33333" height="3.33333" rx="1" fill="white"/>
<rect y="8.33334" width="3.33333" height="3.33333" rx="1" fill="white"/>
<rect x="16.6667" y="8.33334" width="3.33333" height="3.33333" rx="1" fill="white"/>
<rect x="15.6904" y="1.66666" width="3.33333" height="3.33333" rx="1" transform="rotate(45 15.6904 1.66666)" fill="white"/>
<rect x="4.02368" y="13.3333" width="3.33333" height="3.33333" rx="1" transform="rotate(45 4.02368 13.3333)" fill="white"/>
<rect x="1.66669" y="4.02368" width="3.33333" height="3.33333" rx="1" transform="rotate(-45 1.66669 4.02368)" fill="white"/>
<rect x="13.3333" y="15.6904" width="3.33333" height="3.33333" rx="1" transform="rotate(-45 13.3333 15.6904)" fill="white"/>
</svg>
