<svg width="22" height="20" viewBox="0 0 22 20" fill="none" xmlns="http://www.w3.org/2000/svg">
<path d="M5.28582 10.1853C6.6663 8.57224 7.45107 7.08215 7.95971 5.79448L8.08057 5.81665L10.9194 6.33758L11.0548 6.36243L11.1902 6.33758L14.0289 5.81665L14.1498 5.79447C14.6584 7.08214 15.4432 8.57224 16.8237 10.1853C17.3252 11.2108 17.4248 12.0434 17.3021 12.7079C17.1766 13.3873 16.8033 13.9751 16.2221 14.4714C15.0317 15.4877 13.0395 16.0499 11.0547 16.0499C9.07002 16.0499 7.07777 15.4877 5.88744 14.4714C5.30617 13.9751 4.93289 13.3873 4.8074 12.7079C4.68467 12.0434 4.78424 11.2108 5.28582 10.1853Z" stroke="#FFF500" stroke-width="1.5"/>
<path d="M11.0547 18.3999V19.9999" stroke="#FFF500"/>
<path d="M2.71777 15.2L0.999821 15.7472" stroke="#FFF500"/>
<path d="M16.54 17.6001L17.3127 19.0502" stroke="#FFF500"/>
<path d="M5.42871 17.6001L4.65608 19.0502" stroke="#FFF500"/>
<path d="M19.2822 15.2L21.0002 15.7472" stroke="#FFF500"/>
<ellipse cx="10.9634" cy="0.8" rx="1.7368" ry="0.8" fill="#FFF500"/>
</svg>
