<svg width="20" height="23" viewBox="0 0 20 23" fill="none" xmlns="http://www.w3.org/2000/svg">
<path d="M2.76325 20.0351C2.35047 20.3209 1.83797 19.8564 2.0504 19.389L3.7945 15.5519L7.79451 16.5519L2.76325 20.0351Z" fill="white"/>
<path d="M5 12.2L6.27617 6.68696C6.44975 5.9371 7.36991 5.65624 7.93265 6.18136L9.31775 7.47387C9.70194 7.83237 10.2981 7.83238 10.6822 7.47387L12.0673 6.18136C12.6301 5.65624 13.5503 5.9371 13.7238 6.68696L15 12.2" stroke="white" stroke-width="1.5" stroke-linecap="round" stroke-linejoin="round"/>
<path d="M19.25 9C19.25 13.484 15.1849 17.25 10 17.25C4.81508 17.25 0.75 13.484 0.75 9C0.75 4.51603 4.81508 0.75 10 0.75C15.1849 0.75 19.25 4.51603 19.25 9Z" stroke="white" stroke-width="1.5"/>
</svg>
