<svg width="19" height="20" viewBox="0 0 19 20" fill="none" xmlns="http://www.w3.org/2000/svg">
<path d="M15.6862 5.56124C16.4745 6.04808 17.304 6.46738 18.1672 6.70339C17.9892 7.40435 17.524 8.31 16.7724 9.35495C15.8151 10.686 14.4842 12.1197 13.0171 13.4423C11.5507 14.7642 9.96963 15.956 8.52295 16.8123C7.36166 17.4996 6.35762 17.9278 5.59843 18.0805C4.98975 15.8931 3.89322 14.1398 2.92522 12.592C2.86021 12.4881 2.79578 12.385 2.73211 12.2829C1.60209 10.4695 0.75 8.97524 0.75 7.22405C0.75 3.65249 3.66276 0.75 7.26471 0.75C8.0953 0.75 8.95949 1.03829 9.88504 1.53716C10.8121 2.03683 11.7457 2.71664 12.7198 3.44776C12.8324 3.53227 12.9456 3.61753 13.0593 3.70321C13.9129 4.34612 14.798 5.0127 15.6862 5.56124Z" stroke="#FF9900" stroke-width="1.5" stroke-linejoin="round"/>
<path d="M2.23587 3.33424C1.86332 2.22285 1.78881 0.222346 4.47116 1.11146" stroke="#FF9900"/>
<path d="M10.6743 16.7834C11.1473 17.5749 10.8856 18.5978 10.0897 19.0682C9.29373 19.5386 8.26503 19.2783 7.79199 18.4868C9.23316 17.6351 8.43722 18.1055 9.23316 17.6351C10.0291 17.1647 9.23315 17.6351 10.6743 16.7834Z" fill="#FF9900"/>
</svg>
