<svg width="12" height="20" viewBox="0 0 12 20" fill="none" xmlns="http://www.w3.org/2000/svg">
<rect x="4.02246" y="11.75" width="11" height="7.22727" rx="3.25" transform="rotate(-90 4.02246 11.75)" stroke="white" stroke-width="1.5"/>
<rect x="4.02246" y="11.75" width="11" height="7.22727" rx="3.25" transform="rotate(-90 4.02246 11.75)" stroke="#14FF00" stroke-width="1.5"/>
<rect x="4.02246" y="11.75" width="11" height="7.22727" rx="3.25" transform="rotate(-90 4.02246 11.75)" stroke="#14FF00" stroke-width="1.5"/>
<rect x="4.02246" y="11.75" width="11" height="7.22727" rx="3.25" transform="rotate(-90 4.02246 11.75)" stroke="#14FF00" stroke-width="1.5"/>
<rect x="0.75" y="18.75" width="11" height="7.22727" rx="3.25" transform="rotate(-90 0.75 18.75)" stroke="white" stroke-width="1.5"/>
<rect x="0.75" y="18.75" width="11" height="7.22727" rx="3.25" transform="rotate(-90 0.75 18.75)" stroke="#14FF00" stroke-width="1.5"/>
<rect x="0.75" y="18.75" width="11" height="7.22727" rx="3.25" transform="rotate(-90 0.75 18.75)" stroke="#14FF00" stroke-width="1.5"/>
<rect x="0.75" y="18.75" width="11" height="7.22727" rx="3.25" transform="rotate(-90 0.75 18.75)" stroke="#14FF00" stroke-width="1.5"/>
</svg>
